<?xml version="1.0" standalone="no"?>
<!DOCTYPE svg PUBLIC "-//W3C//DTD SVG 20010904//EN"
 "http://www.w3.org/TR/2001/REC-SVG-20010904/DTD/svg10.dtd">
<svg version="1.0" xmlns="http://www.w3.org/2000/svg"
 width="1004.009608pt" height="309.942446pt" viewBox="0 0 1004.009608 309.942446"
 preserveAspectRatio="xMidYMid meet">
<metadata>
Created by potrace 1.16, written by Peter Selinger 2001-2019
</metadata>
<g transform="translate(0.009608,315.000000) scale(0.100000,-0.100000)"
fill="#B00020" stroke="none">
<path d="M8810 3080 c0 -56 -3 -71 -18 -79 -10 -5 -24 -21 -32 -35 -9 -19 -22
-26 -42 -26 l-28 0 0 -75 c0 -43 -4 -75 -10 -75 -6 0 -10 -50 -10 -130 0 -80
4 -130 10 -130 6 0 10 -4 10 -10 0 -5 -9 -10 -20 -10 -15 0 -20 -7 -20 -25 0
-14 3 -25 8 -25 19 0 32 -61 32 -157 l0 -103 -35 0 -35 0 0 -69 c0 -112 -10
-161 -31 -161 -24 0 -26 -51 -3 -75 9 -9 29 -60 45 -113 l29 -97 10 -525 c5
-289 10 -632 10 -762 l0 -238 -70 0 c-38 0 -70 -3 -70 -7 0 -5 -28 -8 -63 -8
-83 -1 -137 -12 -137 -30 0 -12 -17 -15 -79 -15 -44 0 -81 -4 -83 -9 -1 -5
-58 1 -126 12 -68 11 -118 23 -112 27 6 4 13 22 16 42 5 30 3 36 -15 41 -20 5
-21 11 -21 155 0 90 4 153 10 157 17 11 12 102 -6 109 -9 3 -63 6 -120 6
l-104 0 0 -65 0 -65 -40 0 c-38 0 -40 -2 -40 -30 0 -16 -4 -30 -10 -30 -5 0
-10 16 -10 35 0 33 -2 35 -32 35 -61 0 -78 -10 -78 -42 0 -17 -4 -27 -10 -23
-5 3 -10 19 -10 36 0 28 -2 29 -45 29 -43 0 -45 -1 -45 -30 0 -16 -4 -30 -10
-30 -5 0 -10 11 -10 25 0 24 -3 25 -55 25 -52 0 -55 -1 -55 -25 0 -14 -4 -25
-10 -25 -5 0 -10 9 -10 20 0 16 -7 20 -30 20 -30 0 -30 1 -30 54 0 30 -4 57
-8 60 -4 2 -51 2 -104 -1 l-97 -6 -3 -51 c-3 -50 -4 -51 -35 -54 -25 -2 -33
-8 -33 -23 0 -10 -4 -19 -10 -19 -5 0 -10 11 -10 25 0 23 -4 25 -40 25 -34 0
-42 -4 -50 -25 -10 -27 -30 -34 -30 -11 0 17 -22 26 -61 26 l-29 0 0 -120 c0
-119 0 -121 -27 -145 -51 -45 -53 -40 -53 144 l0 169 -117 -3 c-65 -2 -126 -6
-135 -10 -16 -6 -18 -24 -18 -166 l0 -159 -70 0 c-59 0 -81 -5 -130 -30 -56
-28 -67 -30 -173 -30 -84 0 -118 4 -133 15 -27 20 -198 20 -247 0 -27 -11 -77
-15 -202 -15 l-165 0 0 65 c0 62 -1 65 -27 71 -16 3 -36 8 -45 11 -14 3 -18
-2 -18 -26 l0 -31 -80 0 c-44 0 -80 4 -80 8 0 5 -29 21 -65 37 -61 26 -65 29
-65 60 0 31 -1 32 -32 26 -25 -5 -34 -13 -36 -30 -4 -24 -4 -24 -103 -17 -78
5 -111 12 -149 31 -42 21 -57 24 -109 18 l-61 -6 0 27 c0 26 -2 27 -37 20 -42
-7 -49 -12 -55 -34 -2 -13 -25 -9 -140 28 -128 40 -137 45 -140 70 -3 28 -2
28 -130 46 -37 6 -48 11 -48 25 0 13 -16 23 -60 36 l-60 18 0 42 c0 33 -8 52
-35 89 l-36 46 -453 0 c-394 0 -455 2 -460 15 -3 8 -14 15 -26 15 -15 0 -27
16 -49 64 -34 75 -94 137 -162 169 l-49 22 0 86 c0 82 -1 86 -30 114 -25 24
-30 36 -30 77 l0 48 -35 0 -35 0 0 -48 c0 -41 -5 -53 -30 -77 -29 -28 -30 -32
-30 -116 l0 -87 -30 -12 c-33 -14 -110 -85 -152 -140 l-27 -35 -1 455 -1 455
-34 90 -33 90 -4 -60 -3 -60 -25 70 -25 70 -5 -40 c-7 -53 -20 -23 -20 46 l0
49 -35 0 -35 0 0 -57 c0 -43 -6 -68 -24 -97 -27 -45 -31 -41 -41 34 l-8 55
-25 -70 c-23 -66 -26 -89 -36 -385 l-11 -315 -227 -3 -228 -2 0 -54 c0 -45 -3
-54 -20 -59 -19 -5 -20 -14 -20 -176 l0 -171 -70 0 c-63 0 -70 2 -70 20 0 13
-7 20 -20 20 -11 0 -20 5 -20 10 0 6 17 10 38 10 l37 1 -81 51 -81 51 -33 112
c-18 62 -36 119 -41 126 -5 9 -9 -22 -10 -81 l-1 -95 -15 105 c-8 58 -16 111
-19 119 -3 9 -20 -10 -44 -50 -31 -50 -39 -74 -40 -111 0 -37 -4 -48 -19 -53
-12 -3 -21 -17 -23 -32 -3 -22 -13 -29 -78 -52 -67 -23 -75 -29 -78 -53 -2
-21 1 -28 13 -28 10 0 15 -7 13 -18 -3 -14 -25 -20 -133 -32 -121 -14 -137
-14 -230 2 -123 22 -115 22 -115 0 0 -15 17 -21 105 -36 100 -17 112 -17 254
0 164 19 161 17 161 91 0 29 4 33 58 50 49 17 57 23 60 47 2 17 12 31 28 38
21 10 24 18 24 69 0 55 12 84 23 56 3 -8 8 -44 12 -82 7 -61 12 -73 46 -109
l38 -41 1 29 c0 25 2 28 12 14 7 -8 28 -25 46 -37 27 -19 32 -29 32 -62 0 -32
3 -39 20 -39 13 0 20 -7 20 -20 0 -19 7 -20 105 -20 l105 0 0 169 c0 168 0
170 23 173 19 3 22 10 25 60 l3 58 223 0 223 0 6 128 c4 70 8 181 8 247 2 121
14 298 17 238 1 -17 6 -34 10 -37 4 -2 29 33 56 80 27 46 51 84 55 84 3 0 22
-27 40 -60 19 -33 38 -60 41 -60 4 0 17 -35 31 -77 l24 -78 6 65 c3 36 6 -157
7 -427 2 -434 4 -493 17 -493 9 0 20 12 25 26 29 75 139 196 196 214 l34 12 0
92 c0 89 1 93 30 121 l29 28 36 -27 35 -27 0 -92 0 -92 55 -24 c69 -29 134
-100 162 -173 15 -38 26 -54 42 -56 11 -2 21 -10 21 -18 0 -12 68 -14 465 -14
l464 0 31 -44 c22 -33 30 -56 30 -89 l0 -44 60 -17 c45 -13 60 -21 60 -35 0
-21 16 -27 108 -37 59 -6 62 -8 62 -33 0 -25 6 -29 148 -73 125 -38 147 -49
150 -67 3 -16 10 -21 33 -21 27 0 29 2 30 43 0 30 3 37 8 22 7 -18 16 -19 83
-16 64 2 83 -1 124 -22 40 -20 71 -25 166 -31 l117 -7 4 28 c4 28 4 28 6 2 1
-22 10 -30 62 -50 37 -14 64 -31 67 -41 4 -16 18 -18 118 -18 l114 0 0 25 c0
14 5 25 10 25 6 0 10 -28 10 -65 l0 -65 194 0 c149 0 202 3 229 15 46 19 164
19 197 0 18 -10 62 -14 158 -15 128 0 135 1 192 30 57 29 65 30 140 24 l80 -7
0 152 0 151 34 0 c28 0 35 4 39 22 l4 23 2 -22 c1 -20 7 -23 41 -23 33 0 40 3
40 20 0 11 7 20 15 20 13 0 15 -24 15 -158 l0 -159 25 -11 c37 -17 42 -16 91
24 l44 36 0 109 c0 66 4 109 10 109 6 0 10 -8 10 -18 0 -26 77 -18 85 9 9 27
25 23 25 -6 0 -23 4 -25 45 -25 41 0 45 2 45 25 0 22 4 25 35 25 31 0 35 3 35
25 0 21 5 25 30 25 25 0 30 4 30 25 0 14 5 25 10 25 6 0 10 -13 10 -30 0 -27
3 -30 29 -30 27 0 30 4 34 38 2 25 4 16 5 -25 2 -63 2 -63 32 -63 20 0 30 -5
30 -15 0 -11 11 -15 40 -15 36 0 40 3 40 25 0 20 5 25 25 25 20 0 25 -5 25
-25 0 -14 5 -25 10 -25 6 0 10 -7 10 -15 0 -10 10 -15 30 -15 28 0 30 2 30 40
0 29 4 40 15 40 9 0 15 -10 15 -26 0 -34 22 -54 59 -54 29 0 31 2 31 40 0 29
4 40 15 40 10 0 15 -11 15 -35 0 -35 0 -35 45 -35 45 0 45 0 45 36 0 41 23 43
29 3 4 -28 17 -39 50 -39 l24 0 -5 98 c-3 53 -3 82 -1 65 4 -29 8 -33 34 -33
26 0 29 3 29 30 0 17 5 30 10 30 6 0 10 -13 10 -30 0 -27 3 -30 30 -30 l30 0
0 -179 c0 -134 3 -181 13 -185 10 -5 10 -7 0 -12 -7 -3 -13 -20 -13 -38 l0
-33 133 -22 c146 -24 197 -26 197 -10 0 7 23 9 75 4 71 -7 75 -6 75 13 0 26
46 35 134 26 59 -6 66 -5 66 11 0 16 7 17 76 11 l77 -7 -6 303 c-4 167 -10
519 -13 783 l-7 480 -33 112 c-18 62 -35 117 -39 123 -3 5 1 10 9 10 14 0 16
18 16 120 0 73 4 120 10 120 6 0 10 -11 10 -25 0 -21 5 -25 30 -25 l30 0 0
165 c0 95 -4 165 -9 165 -6 0 -7 23 -4 54 4 34 2 56 -6 60 -16 11 -15 200 2
193 6 -2 22 -1 35 4 19 7 22 16 22 61 0 93 31 163 68 156 30 -6 52 -53 64
-135 l11 -83 34 0 33 0 -6 -295 -7 -295 36 0 37 0 0 -105 c0 -62 4 -105 10
-105 6 0 6 -10 -1 -27 -8 -22 -7 -30 7 -40 10 -7 12 -13 6 -13 -7 0 -12 -9
-12 -20 0 -11 -4 -20 -8 -20 -26 0 -32 -179 -32 -968 l0 -812 30 0 c17 0 30 5
30 10 0 6 34 10 83 10 71 0 85 3 97 20 9 12 21 18 31 15 10 -3 20 -1 24 5 3 5
15 10 26 10 16 0 19 7 19 50 0 43 3 50 20 50 11 0 20 5 20 10 0 6 10 10 22 10
12 0 36 5 54 12 27 9 48 8 111 -5 43 -9 82 -17 86 -17 3 0 8 82 9 182 l3 182
75 24 75 24 68 -32 67 -32 0 -129 0 -129 25 0 c15 0 25 6 25 14 0 7 7 19 15
26 8 7 15 21 15 32 0 15 -3 17 -19 8 -11 -5 -22 -10 -25 -10 -3 0 -6 49 -6
108 l0 108 -83 37 -82 37 -55 -16 c-30 -9 -72 -23 -92 -31 l-38 -15 0 -175 c0
-161 -1 -174 -17 -169 -84 25 -177 33 -188 16 -3 -6 -21 -10 -40 -10 -20 0
-35 -6 -39 -15 -3 -9 -18 -15 -36 -15 -27 0 -30 -3 -30 -30 0 -16 5 -30 10
-30 6 0 10 -7 10 -15 0 -8 -9 -15 -20 -15 -11 0 -20 -4 -20 -10 0 -5 -9 -10
-21 -10 -11 0 -28 -9 -38 -21 -15 -19 -23 -20 -94 -13 l-78 7 3 800 c2 629 6
801 16 805 6 2 12 19 12 39 0 37 26 103 41 103 5 0 9 14 9 30 0 19 -5 30 -14
30 -17 0 -26 63 -26 186 l0 94 -40 0 -40 0 0 105 c0 91 2 105 16 105 14 0 16
8 10 46 -3 26 -6 111 -6 190 0 116 -3 144 -14 144 -17 0 -26 31 -26 98 0 49
-2 52 -25 52 -14 0 -25 -6 -25 -12 0 -7 -8 1 -19 17 -10 17 -28 39 -40 49 -17
16 -21 30 -21 83 0 56 -2 63 -20 63 -18 0 -20 -7 -20 -70z m-913 -2517 c-3
-10 -5 -4 -5 12 0 17 2 24 5 18 2 -7 2 -21 0 -30z"/>
</g>
</svg>
